# xmcd
#
# Track frame offsets:
#	150
#	19855
#	40896
#	52128
#	73262
#	89999
#	104532
#	114580
#	127314
#	143703
#	155846
#	170366
#	182286
#	191863
#	204810
#	218584
#
# Disc length: 3110 seconds
#
# Revision: 0
# Processed by: cddbd v1.5.2PL0 Copyright (c) Steve Scherf et al.
# Submitted via: EasyCDDAExtractor 16.0.6.1
#
DISCID=f60c2410
DTITLE=Συλλογικός δίσκος - Τα μεγάλα τραγούδια-Μ. Χατζιδάκις 4
DYEAR=2010
DGENRE=Ποικίλη
TTITLE0=Σαββόπουλος Διονύσης - Τα καλοτάξιδα πουλιά-Ήρθε βοριάς ήρ. νοτιάς[Ν.Γ
TTITLE0=κάτσος-Γ.Αραβαντινός]
TTITLE1=Αλεξάνδρα - Μην τον ρωτάς τον ουρανό [Γ. Ιωαννίδης]
TTITLE2=Γιαννάτου Σαβίνα - Έφυγε το τραίνο [Ν. Γκάτσος]
TTITLE3=Γαλάνη Δήμητρα - Έλα σε μένα [Ν. Γκάτσος]
TTITLE4=Φαραντούρη Μαρία - Τριαντάφυλλο στο στήθος [Μ. Χατζιδάκις]
TTITLE5=Μερκούρη Μελίνα - Λεωφορείον ο Πόθος-Χάρτινο το φεγγαράκι [Ν. Γκάτσος]
TTITLE6=Αλεξάνδρα - Τραγούδια στο ηλεκτρόφωνο [Μιχ. Μπουρμπούλης]
TTITLE7=Μητσιάς Μανώλης - Πώς να κρατήσω το φως που βασιλεύει [Ν. Γκάτσος]
TTITLE8=Ζορμπαλά Μαργαρίτα - Στου ήλιου τ' αλώνι [Ν. Γκάτσος]
TTITLE9=Γιαννάτου Σαβίνα - Φέτρε μου ένα μαντολίνο [Μ. Χατζιδάκις]
TTITLE10=Αρλέτα - Η Κρασογιώργαινα [απ. καπετάν Μιχάλης, Ν. Καζαντζάκης]
TTITLE11=Μουτσάτσου Αναστασία - Ας είναι καλά το γινάτι σου [Αλ. Σακελλάριος]
TTITLE12=Μούτσιος Γιώργος - Μιά Παναγιά [Ν. Γκάτσος]
TTITLE13=Βουγιουκλάκη Αλίκη - Το τραγούδι της σειρήνας [Ν. Γκάτσος]
TTITLE14=Αλεξάνδρα - Από Σάββατο Κυριακή [Μιχ. Μπουρμπούλης]
TTITLE15=Άνευ ερμηνευτού - Η μπαλάντα του Ούρι [οργ. Ν. Γκάτσος]
EXTD=
EXTT0=
EXTT1=
EXTT2=
EXTT3=
EXTT4=
EXTT5=
EXTT6=
EXTT7=
EXTT8=
EXTT9=
EXTT10=
EXTT11=
EXTT12=
EXTT13=
EXTT14=
EXTT15=
PLAYORDER=
